<svg xmlns="http://www.w3.org/2000/svg" viewBox="217.69 108.06 417.62 371.32"><path fill="#fff" d="m461.98 139.91-.27-.47c-18.12-31.38-63.42-31.38-81.54 0l-53.99 93.51zm95.68 165.74L544 281.99l-43.48 197.38h18.78zm-27.19-47.1-13.7-23.73-53.87 244.55h18.93zM425.32 479.37h18.7l59.19-268.03-13.52-23.43zm-146.71-45.8 16.18-11.23 84.54 57.03h27.27l69.5-314.98-4.93-8.55-166.32 114.04-21.1 36.55 172.98-118.67-4.45 25.29-189.73 130.1-21.41 37.09 205.42-140.92-6.08 26.34-219.32 150.69a46.1 46.1 0 0 0-2.17 23.65L434.4 292l-6.37 26.76-202.29 138.76c8.14 12.83 22.36 21.84 39.72 21.84h81.07l-67.9-45.81Zm81.13-55.99 51.99 35.07-4.14 19.35-64.25-43.34zm-32.58 22.31 75.88 51.19-3.71 19.64-88.35-59.6zm290.03 8.87-45.95-79.59-33.09 150.21h38.27c36.24 0 58.89-39.23 40.77-70.62"/></svg>